{"title":"22 Jump Street (2014)  [XviD - Italian English Ac3 5.1 - Ita Eng","uid":11441683,"size":2025332524,"categoryP":"video","categoryS":"movies","magnet":"?xt=urn:btih:9f779d5805af3d0c9f494b3f2bd6ef2746cdea8a&amp;dn=22+Jump+Street+%282014%29++%5BXviD+-+Italian+English+Ac3+5.1+-+Ita+Eng&amp;tr=udp%3A%2F%2Ftracker.openbittorrent.com%3A80&amp;tr=udp%3A%2F%2Fopen.demonii.com%3A1337&amp;tr=udp%3A%2F%2Ftracker.coppersurfer.tk%3A6969&amp;tr=udp%3A%2F%2Fexodus.desync.com%3A6969","seeders":29,"leechers":4,"uploader":"robbyrs4","files":3,"time":1415814703,"description":"22 Jump Street (2014)  [XviD - Italian English Ac3 5.1 - Ita Eng - Sub Ita Eng] MIRCrew\n\n\n\n[center][color=red][b][img]http://s19.postimg.org/mqmhlwtlf/Mircrew_original_red_skull.png[/img]\n\n[u]NO FOUND ONLY ORIGINAL RELEASE[/u]\n\n22 Jump Street (2014) \n\n[img]http://s19.postimg.org/jogery82b/image.jpg[/img]\n\n\n[URL=http://www.imdb.com/title/tt2294449/][IMG]http://www.userlogos.org/files/logos/Sucka/imdb_new.png[/IMG][/URL]  \n\n[img]http://imageshack.us/a/img534/6946/zcu.gif[/img]\n\nTitolo originale \t22 Jump Street\nLingua originale \tInglese\nPaese di produzione \tStati Uniti d'America\nAnno \t2014\nDurata \t112 minuti\nGenere \tazione, commedia, poliziesco\nRegia \tPhil Lord e Chris Miller\nSoggetto \tPatrick Hasburgh, Stephen J. Cannell (serie TV)\nMichael Bacall, Jonah Hill (storia)\nSceneggiatura \tMichael Bacall, Rodney Rothman, Oren Uziel\nProduttore \tJonah Hill, Neal H. Moritz, Channing Tatum\nProduttore esecutivo \tPhil Lord e Chris Miller, Brian Bell, Tania Landau, Reid Carolin, Ben Waisbren\nCasa di produzione \tColumbia Pictures, Metro-Goldwyn-Mayer, Original Film, Lord Miller Productions, Relativity Media\nDistribuzione (Italia) \tSony\nFotografia \tBarry Peterson\nMontaggio \tDavid Rennie\nMusiche \tMark Mothersbaugh\nScenografia \tSteve Saklad\nCostumi \tLeesa Evans\nTrucco \tNikki I Brown, Annabelle MacNeal, LeDiedra Richard-Baldwin, Kellie Robinson\n\n[img]http://imageshack.us/a/img4/8946/u96.gif[/img]\n\n \n    Jonah Hill: Morton Schmidt\n    Channing Tatum: Greg Jenko\n    Ice Cube: Capitano Dickson\n    Dave Franco: Eric Molson\n    Nick Offerman: Vice capitano Hardy\n    Amber Stevens: Maya\n    Rob Riggle: Mr. Walters\n    Jimmy Tatro: Rooster\n    Wyatt Russell: Zook\n    Jillian Bell: Mercedes\n    Dax Flame: Zack\n    Marc Evan Jackson: Dott. Murphy\n    Keith Lucas: Keith Yang\n    Kenny Lucas: Kenny Yang\n    Caroline Aaron: Annie Schmidt\n    Joe Chrest: David Schmidt\n    Eddie J. Fernandez: Scarface\n    Johnny Pemberton: Delroy\n    Peter Stormare: Ghost\n    Patton Oswalt: Prof. McState\n    Richard Grieco: Booker\n    Seth Rogen: Morton Schmidt \n    Bill Hader:\n    Anna Faris:\n\n\n[img]http://imageshack.us/a/img844/6546/cupz.gif[/img]. \n\n\nAgli agenti Schmidt e Jenko viene affidato l'incarico di svolgere una missione sotto copertura in un college locale per indagare su un'associazione criminale all'interno di una confraternita studentesca......\n\n[img]http://imageshack.us/a/img202/6180/4e6.gif[/img]\n\nAfter making their way through high school (twice), big changes are in store for officers Schmidt and Jenko when they go deep undercover at a local college.......\n\n &lt;a href=&quot;\nhttp://s19.postimg.org/ba0s3v70z/vlcsnap_2014_11_12_16h18m06s184.png[/img]&quot; rel=&quot;nofollow&quot; target=&quot;_NEW&quot;&gt;\nhttp://s19.postimg.org/ba0s3v70z/vlcsnap_2014_11_12_16h18m06s184.png[/img]&lt;/a&gt;\n &lt;a href=&quot;\nhttp://s19.postimg.org/5jalq4z0z/vlcsnap_2014_11_12_16h18m20s54.png[/img]&quot; rel=&quot;nofollow&quot; target=&quot;_NEW&quot;&gt;\nhttp://s19.postimg.org/5jalq4z0z/vlcsnap_2014_11_12_16h18m20s54.png[/img]&lt;/a&gt;\n &lt;a href=&quot;\nhttp://s19.postimg.org/nam84lefn/vlcsnap_2014_11_12_16h19m45s145.png[/img]&quot; rel=&quot;nofollow&quot; target=&quot;_NEW&quot;&gt;\nhttp://s19.postimg.org/nam84lefn/vlcsnap_2014_11_12_16h19m45s145.png[/img]&lt;/a&gt;\n\n\n\n[img]http://imageshack.us/a/img571/2166/an4p.gif[/img]\n\n\n[spoiler]\nGeneral\nComplete name                            : 22 Jump Street (2014).ita.eng.sub.ita.eng.MIRCrew22 Jump Street (2014).ita.eng.sub.ita.eng.MIRCrew.avi\nFormat                                   : AVI\nFormat/Info                              : Audio Video Interleave\nFile size                                : 1.89 GiB\nDuration                                 : 1h 51mn\nOverall bit rate                         : 2 412 Kbps\nMovie name                               : ***** Encoded BG *****\nWriting application                      : VirtualDubMod 1.5.4.1 (build 2178/release)\nWriting library                          : VirtualDubMod build 2178/release\n\nVideo\nID                                       : 0\nFormat                                   : MPEG-4 Visual\nFormat profile                           : Simple@L3\nFormat settings, BVOP                    : No\nFormat settings, QPel                    : No\nFormat settings, GMC                     : No warppoints\nFormat settings, Matrix                  : Default (H.263)\nCodec ID                                 : XVID\nCodec ID/Hint                            : XviD\nDuration                                 : 1h 51mn\nBit rate                                 : 1 502 Kbps\nWidth                                    : 720 pixels\nHeight                                   : 300 pixels\nDisplay aspect ratio                     : 2.40:1\nFrame rate                               : 23.976 fps\nColor space                              : YUV\nChroma subsampling                       : 4:2:0\nBit depth                                : 8 bits\nScan type                                : Progressive\nCompression mode                         : Lossy\nBits/(Pixel*Frame)                       : 0.290\nStream size                              : 1.17 GiB (62%)\nTitle                                    : ***** Encoded BG *****\nWriting library                          : XviD 65\n\nAudio #1\nID                                       : 1\nFormat                                   : AC-3\nFormat/Info                              : Audio Coding 3\nMode extension                           : CM (complete main)\nCodec ID                                 : 2000\nDuration                                 : 1h 51mn\nBit rate mode                            : Constant\nBit rate                                 : 448 Kbps\nChannel(s)                               : 6 channels\nChannel positions                        : Front: L C R, Side: L R, LFE\nSampling rate                            : 48.0 KHz\nBit depth                                : 16 bits\nCompression mode                         : Lossy\nStream size                              : 359 MiB (19%)\nAlignment                                : Split accross interleaves\nInterleave, duration                     : 42 ms (1.00 video frame)\nInterleave, preload duration             : 500 ms\n\nAudio #2\nID                                       : 2\nFormat                                   : AC-3\nFormat/Info                              : Audio Coding 3\nMode extension                           : CM (complete main)\nCodec ID                                 : 2000\nDuration                                 : 1h 51mn\nBit rate mode                            : Constant\nBit rate                                 : 448 Kbps\nChannel(s)                               : 6 channels\nChannel positions                        : Front: L C R, Side: L R, LFE\nSampling rate                            : 48.0 KHz\nBit depth                                : 16 bits\nCompression mode                         : Lossy\nStream size                              : 359 MiB (19%)\nAlignment                                : Split accross interleaves\nInterleave, duration                     : 42 ms (1.00 video frame)\nInterleave, preload duration             : 500 ms\n\n\n[/spoiler]\n\n[/color][/b][/center]","torrent":{"xt":"urn:btih:9f779d5805af3d0c9f494b3f2bd6ef2746cdea8a","amp;dn":"22+Jump+Street+%282014%29++%5BXviD+-+Italian+English+Ac3+5.1+-+Ita+Eng","amp;tr":["udp%3A%2F%2Ftracker.openbittorrent.com%3A80","udp%3A%2F%2Fopen.demonii.com%3A1337","udp%3A%2F%2Ftracker.coppersurfer.tk%3A6969","udp%3A%2F%2Fexodus.desync.com%3A6969"],"infoHash":"9f779d5805af3d0c9f494b3f2bd6ef2746cdea8a","infoHashBuffer":{"type":"Buffer","data":[159,119,157,88,5,175,61,12,159,73,75,63,43,214,239,39,70,205,234,138]},"announce":[],"urlList":[]}}